<?xml version="1.0" encoding="UTF-8"?>
<svg xmlns="http://www.w3.org/2000/svg" xmlns:xlink="http://www.w3.org/1999/xlink" width="15px" height="9px" viewBox="0 0 15 9" version="1.1">
<g id="surface1">
<path style=" stroke:none;fill-rule:nonzero;fill:rgb(0%,0%,0%);fill-opacity:1;" d="M 6.140625 1.359375 C 4.921875 3.046875 4.921875 3.1875 6.234375 4.40625 L 7.359375 5.4375 L 8.859375 4.171875 L 10.359375 2.953125 L 9.140625 1.453125 C 8.4375 0.65625 7.6875 0 7.5 0 C 7.265625 0 6.65625 0.609375 6.140625 1.359375 Z M 6.140625 1.359375 "/>
<path style=" stroke:none;fill-rule:nonzero;fill:rgb(0%,0%,0%);fill-opacity:1;" d="M 0.609375 3.421875 C 0.796875 4.078125 6.09375 8.4375 6.65625 8.4375 C 7.125 8.4375 7.171875 6.9375 6.75 5.859375 C 6.234375 4.546875 0.1875 2.15625 0.609375 3.421875 Z M 0.609375 3.421875 "/>
<path style=" stroke:none;fill-rule:nonzero;fill:rgb(0%,0%,0%);fill-opacity:1;" d="M 11.53125 3.515625 C 9.328125 4.3125 8.15625 5.4375 7.734375 7.125 C 7.265625 8.953125 7.875 8.765625 11.15625 6.328125 C 15.28125 3.234375 15.421875 2.109375 11.53125 3.515625 Z M 11.53125 3.515625 "/>
</g>
</svg>
